<svg xmlns="http://www.w3.org/2000/svg" xmlns:xlink="http://www.w3.org/1999/xlink" width="500" zoomAndPan="magnify" viewBox="0 0 375 374.999991" height="500" preserveAspectRatio="xMidYMid meet" version="1.0"><defs><clipPath id="134bcb6e72"><path d="M 66.023438 5.175781 L 309 5.175781 L 309 369.675781 L 66.023438 369.675781 Z M 66.023438 5.175781 " clip-rule="nonzero"/></clipPath></defs><g clip-path="url(#134bcb6e72)"><path fill="#ffffff" d="M 275.234375 369.332031 C 270.980469 368.554688 268.273438 366.3125 265.953125 361.613281 C 264.160156 357.984375 262.34375 353.179688 261.339844 349.40625 C 258.640625 339.265625 258.464844 338.804688 256.761719 337.5625 C 255.136719 336.375 252.273438 335.292969 250.105469 335.046875 C 246.632812 334.65625 241.015625 335.933594 236.703125 338.109375 C 233.382812 339.785156 227.527344 343.929688 222.742188 348.003906 C 220.214844 350.15625 216.460938 353.074219 214.390625 354.488281 C 212.332031 355.90625 210.246094 357.410156 209.765625 357.828125 C 207.265625 360 197.835938 364.835938 192.53125 366.664062 C 190.691406 367.289062 187.625 368.132812 185.703125 368.523438 C 182.679688 369.144531 181.757812 369.21875 178.734375 369.09375 C 174.203125 368.898438 168.601562 367.765625 166.386719 366.59375 C 163.6875 365.167969 162.019531 362.734375 161.488281 359.457031 C 161.171875 357.484375 161.328125 356.46875 162.40625 353.40625 C 162.777344 352.351562 163.214844 350.992188 163.378906 350.378906 C 163.667969 349.3125 167.527344 342.003906 171.679688 334.644531 C 174.570312 329.515625 177.976562 322.683594 179.390625 319.140625 C 181.148438 314.773438 183.875 305.554688 184.710938 301.167969 C 186.367188 292.460938 187.0625 283.164062 186.582031 275.949219 C 186.0625 268.097656 184.378906 257.398438 183.035156 253.378906 C 181.410156 248.523438 178.347656 241.453125 176.433594 238.136719 C 172.242188 230.847656 163.226562 216.140625 161.328125 213.484375 C 159.902344 211.488281 156.835938 205.980469 155.785156 203.527344 C 154.589844 200.726562 153.3125 196.769531 152.667969 193.847656 C 152.03125 190.972656 152.035156 183.703125 152.679688 179.449219 C 153.148438 176.332031 154.476562 171.152344 155.886719 166.941406 C 156.9375 163.824219 160.800781 155.277344 162.488281 152.351562 C 164.945312 148.089844 169.59375 141.867188 172.792969 138.550781 L 174.820312 136.445312 L 171.46875 135.832031 C 169.503906 135.464844 167.539062 134.921875 166.714844 134.503906 C 165.40625 133.839844 165.222656 133.8125 163.746094 134.125 C 161.886719 134.511719 151.535156 137.425781 142.105469 140.226562 C 131.140625 143.472656 113.078125 148.292969 105.480469 149.980469 C 104.027344 150.308594 101.363281 150.796875 99.570312 151.066406 C 96.507812 151.535156 96.273438 151.542969 95.875 151.097656 C 95.644531 150.847656 95.453125 150.542969 95.453125 150.433594 C 95.453125 150.214844 101.34375 142.628906 104.890625 138.285156 C 111.953125 129.640625 120.367188 120.613281 131.660156 109.570312 L 141.175781 100.261719 L 142.824219 96.929688 C 143.734375 95.105469 144.476562 93.453125 144.476562 93.277344 C 144.476562 93.101562 143.5 92.226562 142.320312 91.34375 C 138.265625 88.320312 134.175781 83.640625 132.230469 79.792969 C 131.230469 77.820312 130.117188 74.714844 129.503906 72.1875 C 128.734375 69.007812 128.820312 58.726562 129.664062 54.523438 C 132.3125 41.238281 140.511719 29.800781 150.046875 26.085938 C 153.332031 24.800781 161.417969 22.027344 163.234375 21.558594 C 164.871094 21.136719 165.273438 20.902344 166.128906 19.863281 C 168.207031 17.328125 172.160156 13.738281 174.769531 12 C 177.585938 10.128906 182.269531 7.6875 185.417969 6.453125 C 187.460938 5.652344 190.152344 5.191406 190.152344 5.640625 C 190.152344 5.929688 187.535156 7.269531 184.304688 8.628906 C 178.429688 11.101562 173.777344 14.066406 169.882812 17.835938 C 168.398438 19.261719 167.246094 20.488281 167.324219 20.554688 C 167.394531 20.617188 169.914062 20.742188 172.917969 20.824219 L 178.378906 20.984375 L 179.324219 20.003906 C 181.464844 17.773438 186.132812 15.039062 189.875 13.832031 C 194.6875 12.285156 198.542969 11.664062 200.1875 12.183594 C 201.378906 12.550781 201.652344 12.949219 200.71875 12.949219 C 200.402344 12.949219 199.90625 13.074219 199.625 13.226562 C 199.332031 13.378906 197.554688 13.8125 195.671875 14.1875 C 189.445312 15.425781 185.195312 17.144531 181.800781 19.808594 L 179.777344 21.386719 L 182.707031 22.417969 C 185.992188 23.574219 190.746094 26.003906 193.554688 27.949219 C 201.164062 33.25 206.355469 40.011719 209.203125 48.34375 C 210.875 53.257812 211.382812 56.203125 211.394531 61.136719 C 211.40625 67.601562 210.542969 71.492188 207.808594 77.269531 C 204.792969 83.621094 199.9375 89.648438 194.90625 93.269531 C 190.113281 96.722656 183.28125 99.578125 177.546875 100.535156 C 173.957031 101.136719 167.273438 101.136719 163.277344 100.535156 C 158.332031 99.800781 152.011719 97.511719 147.75 94.925781 C 146.851562 94.382812 146.074219 93.980469 146.023438 94.035156 C 145.5625 94.558594 142.804688 100.921875 142.902344 101.238281 C 142.96875 101.464844 144.113281 104.664062 145.449219 108.335938 C 148.667969 117.226562 154.191406 133.8125 153.976562 133.933594 C 153.882812 133.992188 153.402344 134.125 152.914062 134.226562 L 152.023438 134.421875 L 149.894531 127.78125 C 144.765625 111.808594 141.800781 103.425781 141.542969 104.164062 C 141.429688 104.46875 139.804688 108.601562 137.925781 113.355469 C 133.210938 125.28125 132.730469 126.574219 130.015625 134.476562 C 127.777344 140.988281 127.570312 141.457031 126.84375 141.703125 C 126.414062 141.84375 125.988281 141.894531 125.914062 141.8125 C 125.507812 141.414062 132.070312 123.273438 137.34375 110.207031 C 138.664062 106.953125 139.738281 104.152344 139.738281 103.980469 C 139.738281 103.523438 128.328125 114.613281 122.984375 120.257812 C 117.871094 125.664062 111.59375 132.703125 107.433594 137.703125 C 102.703125 143.375 98.253906 149.277344 98.632812 149.367188 C 100.132812 149.707031 127.53125 142.703125 142.945312 138.042969 C 151.675781 135.402344 164.320312 131.875 165.042969 131.875 C 165.40625 131.875 166.070312 131.5625 166.515625 131.191406 C 167.394531 130.449219 171.355469 129.078125 174.214844 128.523438 C 175.316406 128.300781 177.269531 128.230469 179.507812 128.3125 L 183.054688 128.453125 L 185 126.773438 C 188.769531 123.523438 193.054688 121.265625 198.167969 119.824219 C 200.140625 119.265625 200.917969 119.214844 207.703125 119.242188 C 214.917969 119.273438 229.582031 119.96875 232.910156 120.441406 C 235.183594 120.765625 235.691406 121.003906 237.800781 122.761719 C 240.527344 125.03125 243.449219 129.800781 244.84375 134.277344 C 246.222656 138.695312 246.476562 145.648438 245.414062 149.917969 C 244.863281 152.140625 243.550781 154.875 242.867188 155.214844 C 242.59375 155.347656 237.5625 155.492188 231.683594 155.53125 C 225.804688 155.5625 220.820312 155.664062 220.613281 155.738281 C 219.917969 156.003906 220.195312 153.875 221.332031 150.15625 C 222.792969 145.398438 223.128906 143.058594 222.90625 139.117188 C 222.558594 132.972656 221.578125 130.152344 218.777344 127.238281 C 214.390625 122.667969 208.980469 120.480469 202.96875 120.847656 C 196.691406 121.234375 190.992188 123.527344 186.023438 127.675781 L 184.261719 129.148438 L 185.632812 130.070312 C 187.8125 131.539062 188.15625 133.125 186.675781 134.882812 C 185.488281 136.292969 184.058594 136.691406 180.0625 136.722656 L 176.515625 136.753906 L 174.535156 138.703125 C 172.382812 140.820312 166.847656 147.988281 164.699219 151.445312 C 162.714844 154.632812 158.625 163.792969 157.328125 167.941406 C 154.800781 176.050781 154.160156 179.726562 154.128906 186.324219 C 154.109375 190.269531 154.199219 191.125 154.855469 193.773438 C 156.410156 200.007812 158.878906 205.367188 163.410156 212.367188 C 168.675781 220.515625 172.914062 227.417969 177.976562 236.136719 C 179.707031 239.117188 182.640625 245.582031 183.875 249.136719 C 185.316406 253.269531 187.085938 260.617188 187.09375 262.46875 C 187.097656 263.328125 187.359375 265.664062 187.667969 267.652344 C 188.394531 272.289062 188.671875 282.460938 188.230469 288.125 C 187.328125 299.554688 184.90625 309.941406 180.746094 320.160156 C 179.519531 323.167969 175.894531 330.414062 173.367188 334.921875 C 164.691406 350.367188 162.902344 354.347656 163.234375 357.492188 C 163.605469 361.058594 165.261719 363.667969 167.988281 364.988281 C 171.414062 366.652344 179.140625 367.816406 183.140625 367.277344 C 191.195312 366.195312 201.34375 362.023438 208.222656 356.972656 C 209.851562 355.777344 212.515625 353.894531 214.140625 352.792969 C 215.761719 351.695312 218.691406 349.449219 220.644531 347.800781 C 226.351562 342.996094 228.007812 341.691406 230.855469 339.785156 C 237.785156 335.136719 242.992188 333.234375 248.921875 333.183594 C 253.304688 333.152344 256.738281 334.363281 258.90625 336.71875 C 260.472656 338.417969 260.929688 339.5625 262.554688 345.878906 C 264.957031 355.214844 267.574219 361.523438 270.242188 364.40625 C 272.832031 367.207031 276.160156 368.308594 280.988281 367.96875 C 284.382812 367.726562 287.417969 366.550781 291.34375 363.960938 C 292.792969 363 293.195312 362.601562 293.046875 362.253906 C 292.222656 360.378906 291.792969 358.453125 291.402344 354.835938 C 291.148438 352.535156 290.894531 350.503906 290.832031 350.316406 C 290.761719 350.09375 289.941406 350.398438 288.410156 351.214844 C 285.289062 352.871094 281.746094 354.117188 276.078125 355.542969 C 271.140625 356.785156 267.675781 357.125 266.980469 356.4375 C 266.796875 356.246094 266.699219 356.042969 266.765625 355.980469 C 266.832031 355.917969 268.207031 355.664062 269.8125 355.425781 C 273.035156 354.945312 280.128906 353.007812 284.382812 351.449219 C 285.890625 350.890625 288.132812 349.828125 289.371094 349.089844 C 290.613281 348.34375 291.722656 347.730469 291.851562 347.730469 C 291.96875 347.730469 292.058594 348.28125 292.046875 348.957031 C 292.035156 349.625 292.097656 350.289062 292.179688 350.4375 C 292.269531 350.570312 292.535156 352.179688 292.78125 354.015625 C 293.328125 358.15625 293.988281 361.007812 294.511719 361.53125 C 294.734375 361.753906 294.839844 362.15625 294.753906 362.421875 C 294.441406 363.332031 290.851562 365.863281 287.5 367.519531 C 284.636719 368.933594 283.816406 369.210938 281.796875 369.453125 C 278.863281 369.800781 277.71875 369.78125 275.234375 369.328125 Z M 242.691406 153.183594 C 243.246094 152.425781 244.15625 148.589844 244.351562 146.21875 C 244.574219 143.457031 244.09375 138.503906 243.335938 135.785156 C 242.722656 133.5625 240.824219 129.570312 239.261719 127.21875 C 238.71875 126.40625 237.398438 124.945312 236.324219 123.972656 L 234.363281 122.207031 L 231.96875 122.015625 C 228.210938 121.71875 216.597656 121.019531 215.367188 121.019531 L 214.257812 121.019531 L 215.78125 122.015625 C 222.9375 126.714844 224.96875 130.742188 224.96875 140.230469 C 224.96875 144.03125 224.582031 146.273438 223.160156 150.664062 C 222.625 152.320312 222.1875 153.703125 222.1875 153.746094 C 222.1875 153.792969 226.71875 153.785156 232.269531 153.746094 C 241.242188 153.664062 242.390625 153.609375 242.691406 153.199219 Z M 229.078125 150.234375 C 227.347656 149.226562 226.746094 144.6875 228.003906 142.117188 C 228.996094 140.085938 230.132812 139.117188 231.519531 139.117188 C 233.699219 139.117188 234.640625 141.148438 234.140625 144.769531 C 233.773438 147.414062 233.300781 148.367188 231.785156 149.53125 C 230.40625 150.582031 229.894531 150.714844 229.078125 150.234375 Z M 231.746094 148.59375 C 232.953125 147.160156 233.433594 143.367188 232.648438 141.484375 C 232.144531 140.28125 231.0625 139.929688 230.210938 140.6875 C 228.191406 142.480469 228.042969 146.792969 229.917969 148.9375 C 230.527344 149.625 230.941406 149.542969 231.746094 148.59375 Z M 235.96875 150.257812 C 235.761719 149.917969 236.101562 149.785156 237.910156 149.5 C 239.242188 149.285156 239.308594 149.234375 239.6875 148.027344 C 239.925781 147.273438 240.105469 145.363281 240.136719 143.226562 C 240.167969 141.273438 240.273438 139.597656 240.375 139.496094 C 240.761719 139.105469 241.363281 140.046875 241.539062 141.320312 C 241.746094 142.828125 241.335938 146.300781 240.742188 148.007812 L 240.355469 149.144531 L 241.4375 149.144531 C 242.65625 149.144531 242.808594 149.46875 241.898438 150.105469 C 241.179688 150.605469 236.265625 150.730469 235.96875 150.257812 Z M 227.789062 134.246094 C 226.410156 132.992188 224.777344 129.902344 224.558594 128.113281 C 224.265625 125.785156 225.613281 123.957031 227.363281 124.292969 C 228.976562 124.601562 231.335938 128.257812 231.972656 131.417969 C 232.277344 132.9375 232.269531 132.980469 231.386719 134.085938 C 230.222656 135.558594 229.292969 135.601562 227.789062 134.238281 Z M 230.765625 132.765625 C 230.9375 130.425781 227.808594 125.253906 226.398438 125.53125 C 226.035156 125.601562 225.949219 125.976562 225.949219 127.289062 C 225.960938 129.300781 226.789062 131.140625 228.496094 132.9375 C 229.980469 134.492188 230.644531 134.441406 230.765625 132.765625 Z M 238.265625 133.992188 C 237.378906 133.625 236.4375 133.164062 236.171875 132.960938 C 233.003906 130.570312 232.214844 128.042969 233.941406 125.796875 C 234.433594 125.160156 235.050781 124.632812 235.3125 124.632812 C 236.078125 124.632812 237.644531 126.714844 239.1875 129.753906 C 240.652344 132.65625 241.058594 134.441406 240.289062 134.578125 C 240.058594 134.617188 239.148438 134.359375 238.265625 133.992188 Z M 237.664062 130.003906 C 235.398438 126.019531 235.066406 125.695312 234.425781 126.890625 C 234.039062 127.613281 234.269531 128.941406 234.96875 130.089844 C 235.558594 131.0625 238.972656 133.464844 239.117188 133.019531 C 239.175781 132.859375 238.515625 131.5 237.664062 130.003906 Z M 184.082031 134.371094 C 184.652344 134.210938 185.207031 133.941406 185.316406 133.769531 C 185.621094 133.269531 183.710938 131.726562 181.914062 131.027344 C 178.84375 129.832031 172.835938 130.335938 168.285156 132.175781 L 167.457031 132.511719 L 169.105469 133.03125 C 173.007812 134.269531 181.675781 135.039062 184.082031 134.371094 Z M 179.308594 98.054688 C 187.117188 96.429688 194.527344 92.410156 199.179688 87.265625 C 204.03125 81.910156 208.007812 73.910156 208.777344 67.957031 C 208.871094 67.191406 208.949219 64.308594 208.9375 61.546875 C 208.921875 56.816406 208.871094 56.34375 208.03125 53.195312 C 206.628906 47.929688 205.1875 44.652344 202.457031 40.519531 C 197.351562 32.78125 186.980469 25.554688 178.191406 23.625 C 175.523438 23.039062 174.195312 22.910156 170.375 22.886719 C 167.855469 22.859375 165.089844 22.941406 164.25 23.050781 C 162.375 23.289062 158.308594 24.085938 158.148438 24.246094 C 158.085938 24.308594 158.585938 24.367188 159.261719 24.371094 C 159.9375 24.371094 160.679688 24.492188 160.90625 24.636719 C 161.773438 25.179688 160.648438 25.578125 157.644531 25.789062 C 148.136719 26.4375 140.449219 32.414062 135.28125 43.167969 C 132.265625 49.453125 131.097656 54.789062 131.023438 62.664062 C 130.964844 68.203125 131.253906 70.441406 132.511719 74.160156 C 134.980469 81.433594 140.339844 87.523438 148.621094 92.449219 C 154.171875 95.75 159.078125 97.507812 165.640625 98.542969 C 166.027344 98.605469 168.53125 98.667969 171.210938 98.6875 C 175.378906 98.71875 176.558594 98.625 179.308594 98.054688 Z M 199.054688 83.023438 C 198.472656 82.453125 195.457031 81.59375 192.125 81.039062 C 189.703125 80.632812 188.089844 80.582031 181.972656 80.707031 C 174.359375 80.871094 170.699219 81.246094 164.84375 82.453125 C 161.113281 83.222656 160.425781 83.199219 160.894531 82.328125 C 161.917969 80.410156 177.28125 78.40625 188.207031 78.765625 C 193.242188 78.925781 197.746094 79.695312 200.035156 80.785156 C 201.152344 81.316406 201.34375 82.195312 200.507812 82.953125 C 199.882812 83.515625 199.585938 83.527344 199.054688 83.023438 Z M 194.332031 72.6875 C 193.269531 71.410156 195.191406 67.382812 197.601562 65.851562 C 199.117188 64.890625 199.972656 64.816406 200.734375 65.585938 C 201.378906 66.230469 201.414062 66.539062 200.976562 67.84375 C 199.902344 71.046875 195.582031 74.195312 194.332031 72.6875 Z M 183.210938 65.402344 C 182.667969 65.023438 182.589844 64.777344 182.707031 63.765625 C 182.902344 62.007812 183.949219 60.066406 185.59375 58.417969 C 187.199219 56.804688 188.304688 56.527344 189.566406 57.410156 C 190.140625 57.808594 190.203125 58.039062 190.09375 59.351562 C 189.988281 60.597656 189.761719 61.117188 188.730469 62.445312 C 186.675781 65.09375 184.460938 66.273438 183.210938 65.402344 Z M 206.25 62.179688 C 206.171875 60.753906 205.882812 58.878906 205.597656 57.992188 C 205.128906 56.511719 205.125 56.347656 205.539062 55.933594 C 206.679688 54.792969 207.703125 56.714844 207.917969 60.40625 C 208.039062 62.457031 207.976562 63.042969 207.558594 63.816406 C 206.710938 65.394531 206.402344 65.003906 206.25 62.179688 Z M 192.726562 49.25 C 191.132812 48.496094 189.058594 48.308594 186.71875 48.691406 C 185.5 48.894531 185.378906 48.871094 185.46875 48.410156 C 185.835938 46.5 193.238281 46.539062 194.503906 48.460938 C 194.925781 49.117188 194.875 50.015625 194.40625 49.964844 C 194.292969 49.9375 193.535156 49.628906 192.726562 49.25 Z M 97.824219 360.101562 C 94.503906 359.621094 93.175781 359.3125 91.867188 358.71875 L 90.375 358.042969 L 67.359375 358.042969 L 66.921875 357.421875 C 66.679688 357.082031 66.492188 356.703125 66.492188 356.582031 C 66.492188 356.46875 71.871094 356.367188 78.453125 356.367188 C 90.320312 356.367188 90.425781 356.367188 90.738281 355.785156 C 91.105469 355.09375 93.441406 353.988281 95.085938 353.722656 C 96.242188 353.539062 96.242188 353.535156 96.425781 352.097656 C 97.945312 340.148438 100.683594 322.582031 103.539062 306.371094 C 105.511719 295.199219 110.449219 265.796875 112.421875 253.453125 C 114.300781 241.726562 115.191406 234.960938 115.929688 226.914062 C 116.316406 222.664062 116.898438 217.128906 117.21875 214.597656 C 117.738281 210.539062 117.816406 208.347656 117.871094 195.796875 C 117.921875 184.816406 118.042969 180.625 118.402344 177.324219 C 119.679688 165.582031 120.816406 159.210938 123.085938 151.136719 C 124.34375 146.660156 124.605469 145.996094 125.1875 145.777344 C 126.589844 145.246094 126.589844 145.378906 125.210938 150.1875 C 122.859375 158.394531 121.398438 166.59375 120.394531 177.261719 C 119.800781 183.609375 119.804688 198.8125 120.414062 205.640625 C 120.832031 210.363281 120.832031 211.480469 120.40625 220.679688 C 119.835938 232.855469 119.433594 238.273438 118.003906 252.757812 C 116.671875 266.289062 116.039062 271.492188 113.691406 288.269531 C 111.769531 302.019531 111.011719 307.957031 108.851562 326.007812 C 107.554688 336.835938 106.59375 345.367188 106.175781 349.773438 L 105.992188 351.667969 L 107.0625 351.441406 C 110.378906 350.738281 117.101562 351.515625 121.976562 353.167969 C 124.410156 353.988281 125.078125 354.550781 124.871094 355.59375 L 124.71875 356.367188 L 142.289062 356.367188 C 158.195312 356.367188 159.839844 356.410156 159.6875 356.808594 C 159.589844 357.050781 159.515625 357.429688 159.515625 357.644531 C 159.515625 357.984375 155.894531 358.042969 134.351562 358.042969 L 109.191406 358.042969 L 108.660156 358.636719 C 107.667969 359.753906 106.398438 360.058594 102.421875 360.140625 C 100.351562 360.183594 98.285156 360.164062 97.824219 360.101562 Z M 106.117188 358.414062 C 106.699219 358.320312 107.136719 358.105469 107.085938 357.933594 C 106.796875 356.949219 101.179688 355.101562 97.535156 354.792969 C 94.453125 354.527344 90.984375 355.757812 91.851562 356.800781 C 92.296875 357.347656 94.238281 358.015625 96.15625 358.289062 C 98.164062 358.578125 104.644531 358.660156 106.117188 358.414062 Z M 109.40625 355.921875 C 109.730469 355.53125 110.507812 355.5 116.257812 355.683594 C 122.953125 355.890625 123.910156 355.746094 121.570312 354.898438 C 117.398438 353.382812 113.839844 352.675781 110.214844 352.648438 C 107.761719 352.625 107.074219 352.726562 105.941406 353.242188 C 105.195312 353.578125 104.480469 353.792969 104.355469 353.710938 C 104.226562 353.628906 104.183594 352.351562 104.261719 350.859375 C 104.558594 345.082031 108.925781 309.121094 111.625 290.21875 C 114.304688 271.441406 116.429688 253.175781 117.734375 237.710938 C 118.117188 233.121094 118.859375 219.050781 118.8125 217.101562 L 118.78125 215.570312 L 118.554688 217.242188 C 118.429688 218.164062 118.0625 221.984375 117.738281 225.738281 C 117.085938 233.363281 116.359375 239.078125 114.515625 250.945312 C 112.882812 261.40625 106.960938 297.03125 105.503906 305.117188 C 102.835938 319.933594 98.242188 349.980469 98.242188 352.59375 L 98.242188 353.527344 L 99.980469 353.710938 C 103.167969 354.046875 104.824219 354.464844 106.625 355.378906 C 108.761719 356.460938 108.933594 356.492188 109.40625 355.921875 Z M 183.054688 359.671875 C 180.289062 359.320312 178.367188 358.71875 175.808594 357.390625 C 173.171875 356.019531 170.238281 353.269531 169.277344 351.257812 C 168.410156 349.4375 168.222656 347.699219 168.839844 347.179688 C 169.238281 346.851562 169.347656 346.851562 169.5625 347.179688 C 169.699219 347.402344 169.8125 347.832031 169.820312 348.140625 C 169.832031 349.050781 171.457031 351.625 172.894531 352.988281 C 175.65625 355.632812 180.171875 357.613281 184.03125 357.878906 L 186.113281 358.015625 L 184.027344 357.636719 C 182.875 357.429688 181.496094 357.066406 180.960938 356.828125 C 180.054688 356.429688 180.519531 356.398438 187.761719 356.378906 C 192.042969 356.355469 195.488281 356.402344 195.425781 356.46875 C 195.363281 356.53125 194.554688 356.902344 193.636719 357.308594 L 191.96875 358.042969 L 193.21875 357.882812 C 196.078125 357.511719 200.3125 356.574219 204.585938 355.375 C 207.082031 354.671875 209.269531 354.140625 209.453125 354.203125 C 210.03125 354.394531 207.203125 355.839844 204.136719 356.921875 C 197.011719 359.425781 189.21875 360.445312 183.054688 359.660156 Z M 188.976562 358.125 C 188.703125 358.054688 188.207031 358.054688 187.859375 358.125 C 187.515625 358.191406 187.730469 358.25 188.34375 358.25 C 188.957031 358.25 189.242188 358.199219 188.976562 358.128906 Z M 212.761719 357.199219 L 213.59375 356.367188 L 257.109375 356.367188 L 258.167969 357.097656 C 258.753906 357.503906 259.226562 357.882812 259.226562 357.941406 C 259.226562 357.992188 248.582031 358.042969 235.578125 358.042969 L 211.917969 358.042969 L 212.761719 357.207031 Z M 295.15625 357.199219 L 295.15625 356.367188 L 308.527344 356.367188 L 308.527344 358.042969 L 295.15625 358.042969 Z M 258.273438 355.398438 C 255.699219 354.039062 253.445312 353.332031 248.921875 352.453125 C 237.898438 350.320312 229.34375 350.65625 220.09375 353.585938 C 216.105469 354.847656 215.730469 354.925781 215.59375 354.53125 C 215.449219 354.121094 219.335938 352.363281 222.230469 351.53125 C 227.117188 350.121094 229.617188 349.835938 237.089844 349.835938 C 244.414062 349.835938 247.53125 350.191406 253.191406 351.644531 C 255.65625 352.277344 263.105469 355.765625 263.117188 356.296875 C 263.121094 356.523438 262.699219 356.644531 261.882812 356.644531 C 260.953125 356.644531 260.054688 356.335938 258.273438 355.398438 Z M 259.234375 352.679688 C 259.234375 352.484375 259.355469 352.144531 259.5 351.914062 C 259.703125 351.59375 259.835938 351.574219 260.09375 351.832031 C 260.355469 352.09375 260.355469 352.261719 260.074219 352.59375 C 259.644531 353.109375 259.226562 353.15625 259.234375 352.679688 Z M 256.445312 351.511719 C 256.445312 351.289062 256.574219 351.03125 256.730469 350.929688 C 256.894531 350.828125 256.945312 350.359375 256.84375 349.835938 C 256.699219 349.070312 256.8125 348.753906 257.488281 347.996094 C 258.050781 347.371094 258.457031 347.140625 258.78125 347.261719 C 259.210938 347.425781 259.191406 347.527344 258.613281 348.324219 C 258.160156 348.949219 258.078125 349.242188 258.324219 349.328125 C 258.929688 349.542969 258.703125 350.726562 257.9375 351.332031 C 257.085938 352.003906 256.445312 352.078125 256.445312 351.511719 Z M 251.433594 349.835938 C 251.433594 349.613281 251.742188 348.96875 252.128906 348.398438 C 252.507812 347.835938 252.824219 347.042969 252.824219 346.625 C 252.824219 345.820312 253.34375 345.25 254.539062 344.738281 C 255.011719 344.539062 255.566406 343.847656 256.097656 342.804688 C 256.546875 341.914062 257.121094 341.148438 257.375 341.097656 C 257.96875 340.984375 257.964844 341.578125 257.355469 342.445312 C 257.089844 342.824219 256.839844 343.378906 256.789062 343.683594 C 256.65625 344.5625 255.992188 345.398438 255.136719 345.75 C 254.550781 345.992188 254.214844 346.433594 253.859375 347.421875 C 253.601562 348.160156 253.128906 349.097656 252.804688 349.5 C 252.171875 350.304688 251.425781 350.488281 251.425781 349.835938 Z M 226.207031 348.824219 C 225.980469 348.457031 226.964844 347.390625 228.445312 346.394531 C 229.285156 345.832031 229.546875 345.484375 229.476562 345.023438 C 229.40625 344.550781 229.617188 344.289062 230.34375 343.941406 C 230.867188 343.695312 231.503906 343.132812 231.765625 342.691406 C 232.03125 342.25 232.515625 341.742188 232.851562 341.566406 C 233.1875 341.390625 233.554688 341.105469 233.667969 340.941406 C 233.8125 340.71875 233.875 340.71875 233.875 340.960938 C 233.882812 341.136719 233.574219 341.578125 233.195312 341.9375 C 232.808594 342.300781 232.5 342.875 232.492188 343.210938 C 232.492188 343.613281 232.199219 343.980469 231.65625 344.265625 C 231.195312 344.5 230.816406 344.921875 230.816406 345.195312 C 230.816406 345.472656 230.328125 346.179688 229.734375 346.777344 C 229.136719 347.371094 228.710938 348.015625 228.789062 348.21875 C 229.039062 348.875 226.601562 349.46875 226.207031 348.835938 Z M 246.417969 348.433594 C 246.417969 348.179688 246.980469 347.171875 247.675781 346.199219 C 248.65625 344.828125 248.902344 344.273438 248.769531 343.742188 C 248.632812 343.179688 248.808594 342.847656 249.75 341.976562 C 250.390625 341.390625 251.34375 340.265625 251.875 339.480469 C 252.398438 338.691406 253.082031 337.980469 253.386719 337.90625 C 254.273438 337.671875 254.257812 338.125 253.367188 338.785156 C 252.914062 339.121094 252.546875 339.625 252.546875 339.910156 C 252.546875 340.195312 252.027344 340.925781 251.402344 341.535156 C 250.441406 342.46875 250.300781 342.734375 250.546875 343.191406 C 250.789062 343.640625 250.554688 344.152344 249.164062 346.21875 C 247.570312 348.589844 246.417969 349.519531 246.417969 348.433594 Z M 231.984375 348.085938 C 232.042969 347.785156 232.574219 347.433594 233.328125 347.179688 C 234.015625 346.957031 234.617188 346.75 234.667969 346.726562 C 234.71875 346.691406 234.605469 346.429688 234.414062 346.125 C 233.953125 345.378906 234.269531 344.703125 235.25 344.359375 C 236.09375 344.0625 236.476562 343.285156 236.507812 341.742188 C 236.527344 341.066406 236.722656 340.8125 237.574219 340.394531 C 238.148438 340.117188 238.617188 339.726562 238.617188 339.53125 C 238.617188 339.164062 240.609375 337.710938 241.121094 337.710938 C 241.601562 337.710938 241.4375 338.195312 240.773438 338.734375 C 240.382812 339.050781 240.148438 339.542969 240.148438 340.074219 C 240.148438 340.738281 239.972656 340.992188 239.257812 341.324219 C 238.246094 341.800781 237.523438 342.628906 237.511719 343.328125 C 237.503906 343.582031 237.132812 344.0625 236.675781 344.386719 C 235.960938 344.890625 235.886719 345.0625 236.121094 345.675781 C 236.507812 346.679688 236.132812 347.15625 234.40625 347.902344 C 232.566406 348.699219 231.859375 348.746094 231.984375 348.085938 Z M 238.894531 347.988281 C 238.894531 347.824219 239.707031 346.933594 240.699219 346.011719 C 242.113281 344.6875 242.449219 344.226562 242.253906 343.867188 C 241.910156 343.222656 242.347656 342.558594 243.652344 341.730469 C 244.515625 341.1875 244.726562 340.910156 244.617188 340.414062 C 244.378906 339.304688 245.085938 338.007812 246.324219 337.273438 C 247.726562 336.445312 248.191406 336.824219 247.058594 337.859375 C 246.628906 338.257812 246.046875 338.789062 245.769531 339.050781 C 245.414062 339.378906 245.308594 339.75 245.414062 340.300781 C 245.539062 340.910156 245.40625 341.238281 244.839844 341.761719 C 244.433594 342.136719 244.011719 342.445312 243.882812 342.445312 C 243.765625 342.445312 243.738281 342.894531 243.828125 343.445312 C 243.984375 344.398438 243.898438 344.539062 241.988281 346.371094 C 240.179688 348.109375 238.894531 348.78125 238.894531 347.988281 Z M 166.128906 343.386719 C 165.628906 342.570312 168.335938 334.933594 170.957031 329.75 C 172.128906 327.4375 173.746094 324.554688 174.550781 323.339844 C 176.003906 321.164062 178.082031 318.769531 178.519531 318.769531 C 178.84375 318.769531 177.730469 320.878906 176.484375 322.625 C 175.894531 323.441406 175.148438 324.917969 174.820312 325.914062 C 174.410156 327.152344 174.101562 327.675781 173.847656 327.574219 C 173.609375 327.488281 173.410156 327.746094 173.285156 328.320312 C 173.03125 329.511719 172.109375 331.300781 171.753906 331.300781 C 171.421875 331.300781 170.34375 333.65625 168.886719 337.578125 C 167.570312 341.125 166.335938 343.722656 166.128906 343.386719 Z M 183.917969 315.480469 C 183.648438 315.03125 184.335938 313.8125 186.566406 310.800781 C 190.757812 305.15625 193.359375 299.890625 196.703125 290.289062 C 199.128906 283.339844 201.082031 273.882812 201.582031 266.679688 C 202.140625 258.726562 200.179688 246.476562 196.972656 237.832031 C 194.601562 231.441406 192.320312 227.863281 185.277344 219.472656 C 182.578125 216.253906 180.289062 213.433594 180.203125 213.207031 C 180.105469 212.972656 179.277344 211.53125 178.363281 210.003906 C 175.871094 205.863281 172.628906 199.007812 172.335938 197.28125 C 172.203125 196.464844 171.84375 194.734375 171.539062 193.433594 C 169.894531 186.414062 169.796875 178.328125 171.238281 169.800781 C 172.382812 163.011719 175.871094 154.765625 180.5 147.894531 C 183.394531 143.601562 190.152344 137.292969 195.304688 134.085938 C 196.378906 133.421875 197.4375 132.621094 197.65625 132.304688 C 198.574219 130.996094 200.40625 129.515625 202.082031 128.730469 C 203.828125 127.914062 204.054688 127.882812 209.683594 127.644531 C 216.289062 127.371094 218.101562 127.542969 218.230469 128.433594 C 218.335938 129.160156 217.683594 129.445312 216.730469 129.085938 C 214.796875 128.34375 211.097656 129.027344 211.488281 130.046875 C 211.753906 130.730469 211.039062 132.695312 210.175781 133.6875 C 209.707031 134.21875 208.511719 135.054688 207.519531 135.539062 C 204.421875 137.0625 199.609375 136.945312 197.636719 135.289062 L 196.796875 134.578125 L 195.160156 135.734375 C 194.261719 136.367188 193.441406 136.894531 193.332031 136.894531 C 193.015625 136.894531 188.75 140.578125 186.371094 142.90625 C 182.507812 146.691406 179.5625 151.167969 176.324219 158.171875 C 173.335938 164.648438 172.152344 170.1875 171.851562 179.117188 C 171.648438 185.015625 172.058594 188.703125 173.621094 194.917969 C 175.054688 200.625 175.515625 201.851562 177.9375 206.296875 C 180.367188 210.753906 181.707031 212.644531 186.644531 218.574219 C 191.226562 224.070312 193.902344 227.550781 195.035156 229.480469 C 195.976562 231.085938 198.578125 237.382812 199.445312 240.140625 C 200.363281 243.0625 201.761719 249.09375 202.265625 252.328125 C 203.289062 258.867188 203.523438 269.144531 202.695312 271.269531 C 202.519531 271.730469 202.125 273.546875 201.824219 275.308594 C 200.667969 282.0625 199.128906 287.59375 196.441406 294.675781 C 193.574219 302.242188 191.058594 306.914062 187.078125 312.074219 C 184.425781 315.511719 184.132812 315.824219 183.917969 315.480469 Z M 207.015625 134.28125 C 207.792969 133.921875 208.765625 133.21875 209.1875 132.714844 C 209.828125 131.957031 209.941406 131.582031 209.871094 130.515625 L 209.789062 129.230469 L 207.460938 129.148438 C 204.726562 129.054688 202.59375 129.578125 200.84375 130.785156 C 199.441406 131.753906 198.398438 133.125 198.617188 133.707031 C 198.914062 134.484375 200.507812 134.921875 203.105469 134.925781 C 205.160156 134.925781 205.863281 134.820312 207.015625 134.28125 Z M 157.183594 149.632812 C 157.136719 149.441406 156.886719 148.660156 156.621094 147.894531 C 154.066406 140.472656 153.421875 138.417969 153.597656 138.246094 C 153.710938 138.132812 154.179688 138 154.636719 137.957031 L 155.464844 137.867188 L 156.765625 141.628906 C 158.636719 147.035156 158.871094 147.621094 159.136719 147.550781 C 159.269531 147.515625 160.753906 146.921875 162.441406 146.230469 C 164.125 145.542969 165.605469 144.972656 165.722656 144.972656 C 165.84375 144.972656 165.628906 145.433594 165.242188 146.003906 C 164.648438 146.871094 163.996094 147.269531 161.121094 148.507812 C 157.371094 150.117188 157.308594 150.136719 157.183594 149.632812 Z M 157.183594 149.632812 " fill-opacity="1" fill-rule="nonzero"/></g></svg>